<svg xmlns="http://www.w3.org/2000/svg" height="511px" width="511px" version="1.1"><polyline points="1.0,0.0,1.0,8.0,1.0,16.0,1.0,24.0,1.0,32.0,1.0,40.0,1.0,48.0,1.0,56.0,1.0,64.0,1.0,72.0,1.0,80.0,1.0,88.0,1.0,96.0,1.0,104.0,1.0,112.0,1.0,120.0,1.0,128.0,1.0,136.0,1.0,144.0,1.0,152.0,1.0,160.0,1.0,168.0,1.0,176.0,1.0,184.0,1.0,192.0,1.0,200.0,1.0,208.0,1.0,216.0,1.0,224.0,1.0,232.0,1.0,240.0,1.0,248.0,1.0,256.0,1.0,264.0,1.0,272.0,1.0,280.0,1.0,288.0,1.0,296.0,1.0,304.0,1.0,312.0,1.0,320.0,1.0,328.0,1.0,336.0,1.0,344.0,1.0,352.0,1.0,360.0,1.0,368.0,1.0,376.0,1.0,384.0,1.0,392.0,1.0,400.0,1.0,408.0,1.0,416.0,1.0,424.0,1.0,432.0,1.0,440.0,1.0,448.0,1.0,456.0,1.0,464.0,1.0,472.0,1.0,480.0,1.0,488.0,1.0,496.0,1.0,504.0,3.0,511.0,11.0,511.0,19.0,511.0,27.0,511.0,35.0,511.0,43.0,511.0,51.0,511.0,59.0,511.0,67.0,511.0,75.0,511.0,83.0,511.0,91.0,511.0,99.0,511.0,107.0,511.0,115.0,511.0,123.0,511.0,131.0,511.0,139.0,511.0,147.0,511.0,155.0,511.0,163.0,511.0,171.0,511.0,179.0,511.0,187.0,511.0,195.0,511.0,203.0,511.0,211.0,511.0,219.0,511.0,227.0,511.0,235.0,511.0,243.0,511.0,251.0,511.0,259.0,511.0,267.0,511.0,275.0,511.0,283.0,511.0,291.0,511.0,299.0,511.0,307.0,511.0,315.0,511.0,323.0,511.0,331.0,511.0,339.0,511.0,347.0,511.0,355.0,511.0,363.0,511.0,371.0,511.0,379.0,511.0,387.0,511.0,395.0,511.0,403.0,511.0,411.0,511.0,419.0,511.0,427.0,511.0,435.0,511.0,443.0,511.0,451.0,511.0,459.0,511.0,467.0,511.0,475.0,511.0,483.0,511.0,491.0,511.0,499.0,511.0,507.0,511.0" stroke="black" stroke-width="1" fill="none" />
<polyline points="400.0,439.0,408.0,432.0,416.0,423.0,424.0,409.0" stroke="black" stroke-width="1" fill="none" />
<polyline points="426.0,418.0,418.0,430.0,410.0,439.0,402.0,445.0,394.0,462.0,386.0,462.0,378.0,462.0,370.0,462.0,362.0,463.0,354.0,463.0,346.0,463.0,338.0,463.0,330.0,463.0,322.0,463.0,314.0,463.0,306.0,464.0,298.0,465.0,290.0,464.0,282.0,464.0,274.0,465.0,266.0,464.0,258.0,464.0,250.0,463.0,242.0,463.0,234.0,462.0,226.0,462.0,218.0,462.0,210.0,462.0,202.0,461.0,194.0,457.0,195.0,452.0,194.0,444.0,194.0,436.0,196.0,428.0,202.0,420.0,214.0,412.0" stroke="black" stroke-width="1" fill="none" />
<polyline points="213.0,406.0,200.0,414.0,193.0,422.0,189.0,430.0,188.0,438.0,188.0,446.0,189.0,454.0,192.0,462.0" stroke="black" stroke-width="1" fill="none" />
<polyline points="212.0,451.0,212.0,443.0,216.0,435.0,212.0,439.0" stroke="black" stroke-width="1" fill="none" />
<polyline points="204.0,440.0,204.0,448.0" stroke="black" stroke-width="1" fill="none" />
<polyline points="208.0,455.0,200.0,449.0,200.0,441.0,204.0,433.0,201.0,436.0" stroke="black" stroke-width="1" fill="none" />
<polyline points="196.0,428.0,204.0,418.0,212.0,413.0,220.0,410.0,228.0,410.0,239.0,410.0,247.0,410.0,255.0,410.0" stroke="black" stroke-width="1" fill="none" />
<polyline points="268.0,401.0,265.0,399.0,265.0,391.0,267.0,383.0,267.0,375.0,267.0,367.0,267.0,359.0,268.0,351.0,268.0,350.0" stroke="black" stroke-width="1" fill="none" />
<polyline points="272.0,352.0,272.0,360.0,271.0,369.0" stroke="black" stroke-width="1" fill="none" />
<polyline points="243.0,376.0,251.0,389.0,259.0,401.0" stroke="black" stroke-width="1" fill="none" />
<polyline points="275.0,415.0,265.0,413.0,256.0,407.0,250.0,399.0,244.0,391.0,240.0,383.0,235.0,374.0" stroke="black" stroke-width="1" fill="none" />
<polyline points="241.0,320.0,249.0,324.0,257.0,319.0" stroke="black" stroke-width="1" fill="none" />
<polyline points="263.0,320.0,255.0,326.0,265.0,318.0,263.0,308.0,257.0,299.0,249.0,298.0" stroke="black" stroke-width="1" fill="none" />
<polyline points="250.0,307.0,258.0,315.0,252.0,323.0" stroke="black" stroke-width="1" fill="none" />
<polyline points="238.0,305.0,238.0,296.0,246.0,288.0,254.0,294.0,262.0,287.0,270.0,285.0,278.0,281.0,286.0,275.0,294.0,273.0,306.0,277.0,314.0,285.0,322.0,293.0,330.0,301.0,338.0,309.0,346.0,317.0,354.0,324.0,362.0,332.0,370.0,340.0,378.0,348.0,386.0,356.0,394.0,363.0,402.0,372.0" stroke="black" stroke-width="1" fill="none" />
<polyline points="408.0,379.0,400.0,379.0,392.0,374.0,384.0,370.0,376.0,365.0,368.0,354.0" stroke="black" stroke-width="1" fill="none" />
<polyline points="351.0,360.0,343.0,360.0,335.0,362.0,327.0,367.0,319.0,378.0" stroke="black" stroke-width="1" fill="none" />
<polyline points="327.0,399.0,335.0,410.0,343.0,410.0,351.0,412.0,359.0,415.0,367.0,420.0" stroke="black" stroke-width="1" fill="none" />
<polyline points="369.0,428.0,355.0,420.0" stroke="black" stroke-width="1" fill="none" />
<polyline points="385.0,427.0,393.0,429.0" stroke="black" stroke-width="1" fill="none" />
<polyline points="398.0,431.0,407.0,433.0,415.0,425.0,420.0,417.0,424.0,409.0,428.0,401.0,431.0,393.0,433.0,385.0,433.0,377.0,433.0,369.0,433.0,361.0,433.0,353.0,431.0,345.0,428.0,337.0,425.0,332.0,417.0,335.0" stroke="black" stroke-width="1" fill="none" />
<polyline points="418.0,333.0,419.0,341.0,419.0,349.0,417.0,357.0,416.0,365.0,413.0,373.0,406.0,381.0" stroke="black" stroke-width="1" fill="none" />
<polyline points="399.0,373.0,391.0,365.0,381.0,357.0,374.0,349.0,366.0,341.0,358.0,333.0,350.0,325.0,341.0,317.0,333.0,309.0,325.0,301.0,317.0,293.0,309.0,285.0,301.0,277.0,294.0,269.0,294.0,261.0,289.0,253.0,288.0,245.0,299.0,237.0,308.0,229.0,315.0,221.0,320.0,213.0,324.0,205.0,318.0,217.0,310.0,227.0,302.0,235.0,294.0,241.0,286.0,247.0" stroke="black" stroke-width="1" fill="none" />
<polyline points="291.0,249.0,299.0,263.0" stroke="black" stroke-width="1" fill="none" />
<polyline points="288.0,272.0,280.0,280.0" stroke="black" stroke-width="1" fill="none" />
<polyline points="291.0,277.0,292.0,285.0,292.0,293.0,296.0,301.0,299.0,309.0,303.0,317.0,310.0,325.0,318.0,333.0,331.0,341.0" stroke="black" stroke-width="1" fill="none" />
<polyline points="338.0,360.0,326.0,368.0,321.0,376.0,319.0,384.0,319.0,392.0,321.0,400.0,325.0,408.0" stroke="black" stroke-width="1" fill="none" />
<polyline points="318.0,412.0,310.0,415.0,302.0,420.0,315.0,412.0" stroke="black" stroke-width="1" fill="none" />
<polyline points="317.0,439.0,320.0,435.0,317.0,443.0,317.0,451.0,326.0,454.0,334.0,458.0,342.0,457.0,350.0,457.0,358.0,456.0,366.0,456.0,374.0,456.0,382.0,456.0,390.0,456.0" stroke="black" stroke-width="1" fill="none" />
<polyline points="394.0,450.0,394.0,442.0,390.0,434.0,386.0,426.0" stroke="black" stroke-width="1" fill="none" />
<polyline points="398.0,423.0,401.0,415.0,403.0,407.0,403.0,399.0,402.0,391.0,399.0,383.0,386.0,375.0,374.0,367.0,367.0,359.0,364.0,351.0,364.0,343.0,356.0,342.0,348.0,342.0,340.0,342.0,332.0,338.0,324.0,333.0,316.0,327.0,308.0,318.0,300.0,303.0" stroke="black" stroke-width="1" fill="none" />
<polyline points="301.0,359.0,305.0,354.0,301.0,362.0,298.0,370.0,299.0,378.0,299.0,386.0,301.0,394.0,298.0,402.0,296.0,410.0,294.0,418.0,295.0,426.0,290.0,434.0,287.0,442.0,287.0,450.0" stroke="black" stroke-width="1" fill="none" />
<polyline points="292.0,439.0,299.0,437.0,297.0,445.0,299.0,453.0" stroke="black" stroke-width="1" fill="none" />
<polyline points="304.0,450.0,312.0,458.0" stroke="black" stroke-width="1" fill="none" />
<polyline points="253.0,451.0,253.0,443.0,257.0,435.0,253.0,439.0" stroke="black" stroke-width="1" fill="none" />
<polyline points="235.0,436.0,239.0,433.0,233.0,441.0,233.0,449.0" stroke="black" stroke-width="1" fill="none" />
<polyline points="224.0,430.0,232.0,419.0" stroke="black" stroke-width="1" fill="none" />
<polyline points="221.0,405.0,213.0,406.0,205.0,410.0,197.0,416.0,189.0,430.0" stroke="black" stroke-width="1" fill="none" />
<polyline points="287.0,458.0,279.0,458.0,271.0,458.0,263.0,456.0,250.0,458.0,242.0,454.0,223.0,456.0,218.0,455.0,222.0,448.0,222.0,440.0,224.0,432.0,228.0,424.0,236.0,416.0,231.0,409.0,233.0,401.0,233.0,393.0,235.0,385.0,235.0,377.0,237.0,369.0,235.0,361.0,233.0,353.0,231.0,345.0,230.0,337.0,230.0,329.0,231.0,321.0,233.0,313.0,235.0,305.0,238.0,297.0,242.0,289.0,230.0,298.0" stroke="black" stroke-width="1" fill="none" />
<polyline points="233.0,277.0,235.0,285.0,233.0,293.0,230.0,301.0,227.0,309.0,226.0,317.0,224.0,325.0,224.0,333.0,224.0,341.0,226.0,349.0,226.0,357.0,228.0,365.0,229.0,373.0,228.0,381.0,228.0,389.0,226.0,397.0" stroke="black" stroke-width="1" fill="none" />
<polyline points="254.0,268.0,262.0,271.0,270.0,267.0" stroke="black" stroke-width="1" fill="none" />
<polyline points="252.0,258.0,241.0,266.0,249.0,261.0" stroke="black" stroke-width="1" fill="none" />
<polyline points="274.0,247.0,282.0,242.0,290.0,236.0,298.0,230.0,306.0,222.0,314.0,212.0,327.0,203.0,335.0,205.0,343.0,205.0,351.0,201.0" stroke="black" stroke-width="1" fill="none" />
<polyline points="320.0,196.0,312.0,190.0,304.0,182.0,296.0,169.0,288.0,153.0" stroke="black" stroke-width="1" fill="none" />
<polyline points="248.0,159.0,253.0,151.0,255.0,143.0,255.0,135.0,251.0,127.0,243.0,119.0,228.0,111.0" stroke="black" stroke-width="1" fill="none" />
<polyline points="225.0,128.0,216.0,136.0,215.0,144.0,220.0,152.0" stroke="black" stroke-width="1" fill="none" />
<polyline points="219.0,145.0,227.0,151.0,235.0,150.0" stroke="black" stroke-width="1" fill="none" />
<polyline points="245.0,162.0,237.0,167.0,229.0,169.0,221.0,168.0,213.0,166.0,205.0,161.0,197.0,149.0" stroke="black" stroke-width="1" fill="none" />
<polyline points="192.0,152.0,196.0,160.0,199.0,160.0" stroke="black" stroke-width="1" fill="none" />
<polyline points="186.0,158.0,194.0,161.0,203.0,173.0" stroke="black" stroke-width="1" fill="none" />
<polyline points="215.0,137.0,223.0,129.0,231.0,128.0,239.0,131.0" stroke="black" stroke-width="1" fill="none" />
<polyline points="234.0,132.0,240.0,140.0,237.0,148.0" stroke="black" stroke-width="1" fill="none" />
<polyline points="251.0,117.0,243.0,112.0,235.0,108.0,227.0,107.0,219.0,107.0,211.0,110.0,203.0,114.0,195.0,117.0,187.0,109.0,179.0,105.0,171.0,104.0" stroke="black" stroke-width="1" fill="none" />
<polyline points="183.0,113.0,191.0,121.0,192.0,129.0,189.0,137.0,188.0,145.0" stroke="black" stroke-width="1" fill="none" />
<polyline points="185.0,133.0,181.0,125.0,180.0,121.0,172.0,121.0,164.0,130.0" stroke="black" stroke-width="1" fill="none" />
<polyline points="171.0,121.0,165.0,129.0,165.0,137.0,170.0,137.0,178.0,139.0" stroke="black" stroke-width="1" fill="none" />
<polyline points="170.0,158.0,162.0,155.0" stroke="black" stroke-width="1" fill="none" />
<polyline points="151.0,153.0,141.0,158.0,133.0,161.0" stroke="black" stroke-width="1" fill="none" />
<polyline points="116.0,165.0,108.0,165.0,100.0,167.0,92.0,172.0,86.0,181.0,91.0,173.0,104.0,165.0" stroke="black" stroke-width="1" fill="none" />
<polyline points="100.0,158.0,87.0,166.0,78.0,174.0,73.0,182.0,70.0,190.0,69.0,198.0,69.0,206.0,69.0,214.0,69.0,222.0,69.0,230.0,69.0,238.0,71.0,246.0,73.0,254.0,76.0,262.0,80.0,270.0,86.0,278.0,93.0,286.0,102.0,294.0,116.0,302.0" stroke="black" stroke-width="1" fill="none" />
<polyline points="81.0,265.0,89.0,277.0,97.0,285.0,105.0,292.0,113.0,297.0,121.0,301.0,129.0,303.0,137.0,305.0,145.0,306.0,153.0,308.0,161.0,307.0,169.0,306.0,177.0,305.0,185.0,303.0,193.0,299.0,201.0,296.0,209.0,291.0,217.0,285.0,225.0,278.0,233.0,272.0,226.0,277.0,217.0,285.0,206.0,293.0,189.0,301.0" stroke="black" stroke-width="1" fill="none" />
<polyline points="249.0,230.0,257.0,227.0,265.0,232.0" stroke="black" stroke-width="1" fill="none" />
<polyline points="254.0,227.0,257.0,234.0,250.0,242.0,244.0,250.0,237.0,258.0,229.0,266.0,221.0,274.0,211.0,282.0,198.0,290.0,180.0,298.0" stroke="black" stroke-width="1" fill="none" />
<polyline points="249.0,243.0,241.0,253.0,233.0,262.0,225.0,270.0,217.0,277.0,209.0,283.0,201.0,289.0,193.0,293.0,185.0,296.0,177.0,299.0,169.0,300.0,161.0,301.0,153.0,301.0,145.0,301.0,137.0,299.0,129.0,297.0,121.0,294.0,113.0,290.0,105.0,284.0,97.0,277.0,89.0,265.0,81.0,249.0" stroke="black" stroke-width="1" fill="none" />
<polyline points="100.0,240.0,87.0,232.0,80.0,224.0" stroke="black" stroke-width="1" fill="none" />
<polyline points="74.0,223.0,82.0,222.0,90.0,230.0,98.0,235.0,106.0,238.0,114.0,240.0,122.0,240.0,130.0,239.0,138.0,237.0,146.0,233.0,154.0,226.0,162.0,214.0" stroke="black" stroke-width="1" fill="none" />
<polyline points="186.0,147.0,178.0,151.0,170.0,153.0,162.0,151.0,154.0,144.0,145.0,151.0,135.0,153.0,127.0,155.0,119.0,155.0,111.0,155.0,103.0,158.0,95.0,161.0,87.0,166.0,79.0,173.0,71.0,185.0" stroke="black" stroke-width="1" fill="none" />
<polyline points="77.0,217.0,74.0,225.0,75.0,233.0,76.0,241.0,78.0,249.0,80.0,257.0,85.0,265.0,90.0,273.0,96.0,281.0,106.0,289.0,119.0,297.0" stroke="black" stroke-width="1" fill="none" />
<polyline points="146.0,125.0,154.0,113.0,162.0,109.0,170.0,99.0,178.0,96.0,186.0,87.0,194.0,82.0,202.0,78.0,210.0,76.0,218.0,73.0,226.0,72.0,234.0,71.0,242.0,71.0,250.0,72.0,258.0,73.0,266.0,76.0,274.0,79.0,282.0,84.0" stroke="black" stroke-width="1" fill="none" />
<polyline points="278.0,90.0,270.0,93.0,262.0,100.0" stroke="black" stroke-width="1" fill="none" />
<polyline points="278.0,111.0,279.0,119.0,279.0,127.0,280.0,135.0,283.0,143.0,285.0,151.0,287.0,159.0,291.0,167.0,295.0,175.0,301.0,183.0,308.0,191.0,318.0,199.0,317.0,207.0,312.0,215.0,306.0,223.0,297.0,231.0,286.0,239.0,274.0,247.0,274.0,255.0,275.0,263.0" stroke="black" stroke-width="1" fill="none" />
<polyline points="399.0,303.0,407.0,299.0,415.0,303.0,423.0,310.0,431.0,322.0" stroke="black" stroke-width="1" fill="none" />
<polyline points="408.0,302.0,418.0,310.0,424.0,318.0,429.0,326.0,433.0,334.0,435.0,342.0,438.0,350.0,440.0,358.0,440.0,366.0,440.0,374.0,439.0,382.0,437.0,390.0,435.0,398.0,433.0,406.0,429.0,414.0,424.0,422.0,418.0,430.0,411.0,438.0,401.0,446.0,399.0,454.0" stroke="black" stroke-width="1" fill="none" />
<polyline points="407.0,405.0,407.0,397.0" stroke="black" stroke-width="1" fill="none" />
<polyline points="406.0,371.0,410.0,363.0,412.0,355.0,412.0,347.0,412.0,339.0,410.0,331.0,408.0,323.0,406.0,315.0,401.0,307.0,402.0,299.0" stroke="black" stroke-width="1" fill="none" />
<polyline points="354.0,199.0,355.0,191.0,356.0,183.0,356.0,175.0,358.0,167.0,358.0,159.0,360.0,151.0,360.0,143.0,362.0,135.0,362.0,127.0,363.0,119.0,363.0,111.0,362.0,103.0,358.0,95.0" stroke="black" stroke-width="1" fill="none" />
<polyline points="359.0,92.0,351.0,91.0,343.0,89.0,335.0,87.0,327.0,87.0,319.0,86.0,311.0,85.0,303.0,85.0,295.0,85.0,287.0,80.0,279.0,75.0,271.0,71.0,263.0,69.0,255.0,67.0,247.0,66.0,239.0,63.0,231.0,58.0,223.0,53.0,215.0,50.0,207.0,47.0,199.0,46.0,191.0,44.0,183.0,44.0,175.0,44.0,167.0,44.0,159.0,44.0,151.0,46.0,143.0,53.0,135.0,64.0" stroke="black" stroke-width="1" fill="none" />
<polyline points="154.0,44.0,144.0,52.0,138.0,60.0,135.0,68.0,133.0,76.0,134.0,84.0,135.0,92.0,137.0,100.0,140.0,108.0,142.0,116.0,141.0,124.0,140.0,132.0,142.0,140.0,140.0,148.0,133.0,161.0,146.0,169.0,156.0,177.0,162.0,185.0,164.0,193.0,165.0,201.0,164.0,209.0,161.0,217.0,156.0,225.0,145.0,233.0" stroke="black" stroke-width="1" fill="none" />
<polyline points="199.0,118.0,210.0,110.0" stroke="black" stroke-width="1" fill="none" />
<polyline points="202.0,78.0,188.0,86.0,180.0,94.0,166.0,101.0,162.0,109.0,151.0,117.0,146.0,125.0,146.0,133.0,148.0,141.0,147.0,149.0,145.0,157.0,149.0,167.0,157.0,174.0,165.0,185.0" stroke="black" stroke-width="1" fill="none" />
<polyline points="276.0,108.0,268.0,105.0,262.0,105.0,264.0,97.0,279.0,89.0,271.0,81.0" stroke="black" stroke-width="1" fill="none" />
<polyline points="281.0,80.0,265.0,72.0" stroke="black" stroke-width="1" fill="none" />
<polyline points="230.0,62.0,217.0,54.0" stroke="black" stroke-width="1" fill="none" />
<polyline points="0.0,1.0,8.0,1.0,16.0,1.0,24.0,1.0,32.0,1.0,40.0,1.0,48.0,1.0,56.0,1.0,64.0,1.0,72.0,1.0,80.0,1.0,88.0,1.0,96.0,1.0,104.0,1.0,112.0,1.0,120.0,1.0,128.0,1.0,136.0,1.0,144.0,1.0,152.0,1.0,160.0,1.0,168.0,1.0,176.0,1.0,184.0,1.0,192.0,1.0,200.0,1.0,208.0,1.0,216.0,1.0,224.0,1.0,232.0,1.0,240.0,1.0,248.0,1.0,256.0,1.0,264.0,1.0,272.0,1.0,280.0,1.0,288.0,1.0,296.0,1.0,304.0,1.0,312.0,1.0,320.0,1.0,328.0,1.0,336.0,1.0,344.0,1.0,352.0,1.0,360.0,1.0,368.0,1.0,376.0,1.0,384.0,1.0,392.0,1.0,400.0,1.0,408.0,1.0,416.0,1.0,424.0,1.0,432.0,1.0,440.0,1.0,448.0,1.0,456.0,1.0,464.0,1.0,472.0,1.0,480.0,1.0,488.0,1.0,496.0,1.0,504.0,1.0,511.0,3.0,511.0,11.0,511.0,19.0,511.0,27.0,511.0,35.0,511.0,43.0,511.0,51.0,511.0,59.0,511.0,67.0,511.0,75.0,511.0,83.0,511.0,91.0,511.0,99.0,511.0,107.0,511.0,115.0,511.0,123.0,511.0,131.0,511.0,139.0,511.0,147.0,511.0,155.0,511.0,163.0,511.0,171.0,511.0,179.0,511.0,187.0,511.0,195.0,511.0,203.0,511.0,211.0,511.0,219.0,511.0,227.0,511.0,235.0,511.0,243.0,511.0,251.0,511.0,259.0,511.0,267.0,511.0,275.0,511.0,283.0,511.0,291.0,511.0,299.0,511.0,307.0,511.0,315.0,511.0,323.0,511.0,331.0,511.0,339.0,511.0,347.0,511.0,355.0,511.0,363.0,511.0,371.0,511.0,379.0,511.0,387.0,511.0,395.0,511.0,403.0,511.0,411.0,511.0,419.0,511.0,427.0,511.0,435.0,511.0,443.0,511.0,451.0,511.0,459.0,511.0,467.0,511.0,475.0,511.0,483.0,511.0,491.0,511.0,499.0,511.0,507.0" stroke="black" stroke-width="1" fill="none" />
<polyline points="72.0,186.0,168.0,186.0" stroke="black" stroke-width="1" fill="none" />
<polyline points="168.0,192.0,120.0,240.0" stroke="black" stroke-width="1" fill="none" />
<polyline points="128.0,240.0,168.0,200.0" stroke="black" stroke-width="1" fill="none" />
<polyline points="160.0,192.0,112.0,240.0" stroke="black" stroke-width="1" fill="none" />
<polyline points="104.0,240.0,160.0,184.0" stroke="black" stroke-width="1" fill="none" />
<polyline points="160.0,176.0,104.0,232.0" stroke="black" stroke-width="1" fill="none" />
<polyline points="104.0,238.0,136.0,238.0" stroke="black" stroke-width="1" fill="none" />
<polyline points="136.0,240.0,160.0,216.0" stroke="black" stroke-width="1" fill="none" />
<polyline points="152.0,176.0,96.0,232.0" stroke="black" stroke-width="1" fill="none" />
<polyline points="96.0,234.0,144.0,234.0" stroke="black" stroke-width="1" fill="none" />
<polyline points="88.0,232.0,152.0,168.0" stroke="black" stroke-width="1" fill="none" />
<polyline points="144.0,168.0,88.0,224.0" stroke="black" stroke-width="1" fill="none" />
<polyline points="88.0,222.0,160.0,222.0" stroke="black" stroke-width="1" fill="none" />
<polyline points="144.0,174.0,128.0,174.0" stroke="black" stroke-width="1" fill="none" />
<polyline points="136.0,168.0,80.0,224.0" stroke="black" stroke-width="1" fill="none" />
<polyline points="72.0,224.0,152.0,144.0" stroke="black" stroke-width="1" fill="none" />
<polyline points="152.0,146.0,144.0,146.0" stroke="black" stroke-width="1" fill="none" />
<polyline points="144.0,138.0,152.0,138.0" stroke="black" stroke-width="1" fill="none" />
<polyline points="152.0,130.0,144.0,130.0" stroke="black" stroke-width="1" fill="none" />
<polyline points="144.0,122.0,152.0,122.0" stroke="black" stroke-width="1" fill="none" />
<polyline points="144.0,120.0,208.0,56.0" stroke="black" stroke-width="1" fill="none" />
<polyline points="208.0,48.0,144.0,112.0" stroke="black" stroke-width="1" fill="none" />
<polyline points="144.0,110.0,160.0,110.0" stroke="black" stroke-width="1" fill="none" />
<polyline points="168.0,122.0,184.0,122.0" stroke="black" stroke-width="1" fill="none" />
<polyline points="184.0,128.0,176.0,136.0" stroke="black" stroke-width="1" fill="none" />
<polyline points="176.0,128.0,168.0,136.0" stroke="black" stroke-width="1" fill="none" />
<polyline points="168.0,134.0,184.0,134.0" stroke="black" stroke-width="1" fill="none" />
<polyline points="184.0,146.0,192.0,146.0" stroke="black" stroke-width="1" fill="none" />
<polyline points="192.0,162.0,208.0,162.0" stroke="black" stroke-width="1" fill="none" />
<polyline points="216.0,146.0,240.0,146.0" stroke="black" stroke-width="1" fill="none" />
<polyline points="240.0,144.0,232.0,152.0" stroke="black" stroke-width="1" fill="none" />
<polyline points="224.0,152.0,240.0,136.0" stroke="black" stroke-width="1" fill="none" />
<polyline points="232.0,136.0,224.0,144.0" stroke="black" stroke-width="1" fill="none" />
<polyline points="224.0,142.0,240.0,142.0" stroke="black" stroke-width="1" fill="none" />
<polyline points="224.0,136.0,216.0,144.0" stroke="black" stroke-width="1" fill="none" />
<polyline points="216.0,138.0,240.0,138.0" stroke="black" stroke-width="1" fill="none" />
<polyline points="232.0,150.0,224.0,150.0" stroke="black" stroke-width="1" fill="none" />
<polyline points="224.0,130.0,240.0,130.0" stroke="black" stroke-width="1" fill="none" />
<polyline points="264.0,104.0,272.0,96.0" stroke="black" stroke-width="1" fill="none" />
<polyline points="272.0,102.0,360.0,102.0" stroke="black" stroke-width="1" fill="none" />
<polyline points="360.0,104.0,296.0,168.0" stroke="black" stroke-width="1" fill="none" />
<polyline points="296.0,166.0,352.0,166.0" stroke="black" stroke-width="1" fill="none" />
<polyline points="360.0,168.0,320.0,208.0" stroke="black" stroke-width="1" fill="none" />
<polyline points="320.0,202.0,352.0,202.0" stroke="black" stroke-width="1" fill="none" />
<polyline points="352.0,192.0,336.0,208.0" stroke="black" stroke-width="1" fill="none" />
<polyline points="320.0,200.0,360.0,160.0" stroke="black" stroke-width="1" fill="none" />
<polyline points="360.0,152.0,320.0,192.0" stroke="black" stroke-width="1" fill="none" />
<polyline points="320.0,198.0,352.0,198.0" stroke="black" stroke-width="1" fill="none" />
<polyline points="352.0,184.0,328.0,208.0" stroke="black" stroke-width="1" fill="none" />
<polyline points="320.0,218.0,312.0,218.0" stroke="black" stroke-width="1" fill="none" />
<polyline points="312.0,224.0,296.0,240.0" stroke="black" stroke-width="1" fill="none" />
<polyline points="288.0,234.0,304.0,234.0" stroke="black" stroke-width="1" fill="none" />
<polyline points="304.0,226.0,312.0,226.0" stroke="black" stroke-width="1" fill="none" />
<polyline points="312.0,210.0,328.0,210.0" stroke="black" stroke-width="1" fill="none" />
<polyline points="312.0,194.0,360.0,194.0" stroke="black" stroke-width="1" fill="none" />
<polyline points="312.0,192.0,360.0,144.0" stroke="black" stroke-width="1" fill="none" />
<polyline points="360.0,136.0,312.0,184.0" stroke="black" stroke-width="1" fill="none" />
<polyline points="312.0,190.0,352.0,190.0" stroke="black" stroke-width="1" fill="none" />
<polyline points="360.0,186.0,304.0,186.0" stroke="black" stroke-width="1" fill="none" />
<polyline points="304.0,184.0,360.0,128.0" stroke="black" stroke-width="1" fill="none" />
<polyline points="360.0,120.0,304.0,176.0" stroke="black" stroke-width="1" fill="none" />
<polyline points="304.0,174.0,352.0,174.0" stroke="black" stroke-width="1" fill="none" />
<polyline points="352.0,182.0,304.0,182.0" stroke="black" stroke-width="1" fill="none" />
<polyline points="296.0,178.0,360.0,178.0" stroke="black" stroke-width="1" fill="none" />
<polyline points="296.0,176.0,360.0,112.0" stroke="black" stroke-width="1" fill="none" />
<polyline points="360.0,96.0,296.0,160.0" stroke="black" stroke-width="1" fill="none" />
<polyline points="296.0,158.0,360.0,158.0" stroke="black" stroke-width="1" fill="none" />
<polyline points="352.0,96.0,288.0,160.0" stroke="black" stroke-width="1" fill="none" />
<polyline points="288.0,162.0,360.0,162.0" stroke="black" stroke-width="1" fill="none" />
<polyline points="360.0,170.0,296.0,170.0" stroke="black" stroke-width="1" fill="none" />
<polyline points="288.0,154.0,360.0,154.0" stroke="black" stroke-width="1" fill="none" />
<polyline points="344.0,96.0,288.0,152.0" stroke="black" stroke-width="1" fill="none" />
<polyline points="288.0,150.0,360.0,150.0" stroke="black" stroke-width="1" fill="none" />
<polyline points="336.0,96.0,288.0,144.0" stroke="black" stroke-width="1" fill="none" />
<polyline points="288.0,142.0,360.0,142.0" stroke="black" stroke-width="1" fill="none" />
<polyline points="336.0,88.0,288.0,136.0" stroke="black" stroke-width="1" fill="none" />
<polyline points="288.0,134.0,360.0,134.0" stroke="black" stroke-width="1" fill="none" />
<polyline points="328.0,88.0,288.0,128.0" stroke="black" stroke-width="1" fill="none" />
<polyline points="288.0,126.0,360.0,126.0" stroke="black" stroke-width="1" fill="none" />
<polyline points="320.0,88.0,280.0,128.0" stroke="black" stroke-width="1" fill="none" />
<polyline points="280.0,130.0,368.0,130.0" stroke="black" stroke-width="1" fill="none" />
<polyline points="312.0,88.0,280.0,120.0" stroke="black" stroke-width="1" fill="none" />
<polyline points="280.0,122.0,368.0,122.0" stroke="black" stroke-width="1" fill="none" />
<polyline points="304.0,88.0,280.0,112.0" stroke="black" stroke-width="1" fill="none" />
<polyline points="280.0,110.0,360.0,110.0" stroke="black" stroke-width="1" fill="none" />
<polyline points="296.0,88.0,280.0,104.0" stroke="black" stroke-width="1" fill="none" />
<polyline points="272.0,104.0,288.0,88.0" stroke="black" stroke-width="1" fill="none" />
<polyline points="288.0,94.0,312.0,94.0" stroke="black" stroke-width="1" fill="none" />
<polyline points="280.0,90.0,352.0,90.0" stroke="black" stroke-width="1" fill="none" />
<polyline points="360.0,146.0,288.0,146.0" stroke="black" stroke-width="1" fill="none" />
<polyline points="280.0,138.0,368.0,138.0" stroke="black" stroke-width="1" fill="none" />
<polyline points="360.0,118.0,288.0,118.0" stroke="black" stroke-width="1" fill="none" />
<polyline points="280.0,114.0,368.0,114.0" stroke="black" stroke-width="1" fill="none" />
<polyline points="288.0,82.0,280.0,82.0" stroke="black" stroke-width="1" fill="none" />
<polyline points="264.0,98.0,360.0,98.0" stroke="black" stroke-width="1" fill="none" />
<polyline points="368.0,106.0,272.0,106.0" stroke="black" stroke-width="1" fill="none" />
<polyline points="280.0,74.0,256.0,74.0" stroke="black" stroke-width="1" fill="none" />
<polyline points="240.0,64.0,232.0,72.0" stroke="black" stroke-width="1" fill="none" />
<polyline points="232.0,64.0,224.0,72.0" stroke="black" stroke-width="1" fill="none" />
<polyline points="224.0,64.0,216.0,72.0" stroke="black" stroke-width="1" fill="none" />
<polyline points="216.0,56.0,176.0,96.0" stroke="black" stroke-width="1" fill="none" />
<polyline points="200.0,80.0,224.0,56.0" stroke="black" stroke-width="1" fill="none" />
<polyline points="200.0,48.0,144.0,104.0" stroke="black" stroke-width="1" fill="none" />
<polyline points="144.0,102.0,168.0,102.0" stroke="black" stroke-width="1" fill="none" />
<polyline points="160.0,114.0,144.0,114.0" stroke="black" stroke-width="1" fill="none" />
<polyline points="144.0,106.0,168.0,106.0" stroke="black" stroke-width="1" fill="none" />
<polyline points="168.0,130.0,184.0,130.0" stroke="black" stroke-width="1" fill="none" />
<polyline points="192.0,122.0,200.0,122.0" stroke="black" stroke-width="1" fill="none" />
<polyline points="184.0,138.0,168.0,138.0" stroke="black" stroke-width="1" fill="none" />
<polyline points="176.0,98.0,136.0,98.0" stroke="black" stroke-width="1" fill="none" />
<polyline points="136.0,96.0,184.0,48.0" stroke="black" stroke-width="1" fill="none" />
<polyline points="176.0,48.0,136.0,88.0" stroke="black" stroke-width="1" fill="none" />
<polyline points="136.0,90.0,184.0,90.0" stroke="black" stroke-width="1" fill="none" />
<polyline points="200.0,54.0,152.0,54.0" stroke="black" stroke-width="1" fill="none" />
<polyline points="144.0,50.0,216.0,50.0" stroke="black" stroke-width="1" fill="none" />
<polyline points="192.0,48.0,144.0,96.0" stroke="black" stroke-width="1" fill="none" />
<polyline points="144.0,94.0,184.0,94.0" stroke="black" stroke-width="1" fill="none" />
<polyline points="192.0,86.0,144.0,86.0" stroke="black" stroke-width="1" fill="none" />
<polyline points="136.0,82.0,200.0,82.0" stroke="black" stroke-width="1" fill="none" />
<polyline points="168.0,48.0,136.0,80.0" stroke="black" stroke-width="1" fill="none" />
<polyline points="136.0,78.0,200.0,78.0" stroke="black" stroke-width="1" fill="none" />
<polyline points="160.0,48.0,136.0,72.0" stroke="black" stroke-width="1" fill="none" />
<polyline points="136.0,74.0,216.0,74.0" stroke="black" stroke-width="1" fill="none" />
<polyline points="232.0,70.0,144.0,70.0" stroke="black" stroke-width="1" fill="none" />
<polyline points="144.0,62.0,224.0,62.0" stroke="black" stroke-width="1" fill="none" />
<polyline points="256.0,66.0,136.0,66.0" stroke="black" stroke-width="1" fill="none" />
<polyline points="136.0,58.0,232.0,58.0" stroke="black" stroke-width="1" fill="none" />
<polyline points="184.0,154.0,128.0,154.0" stroke="black" stroke-width="1" fill="none" />
<polyline points="128.0,160.0,72.0,216.0" stroke="black" stroke-width="1" fill="none" />
<polyline points="72.0,214.0,160.0,214.0" stroke="black" stroke-width="1" fill="none" />
<polyline points="136.0,166.0,112.0,166.0" stroke="black" stroke-width="1" fill="none" />
<polyline points="112.0,160.0,72.0,200.0" stroke="black" stroke-width="1" fill="none" />
<polyline points="72.0,198.0,160.0,198.0" stroke="black" stroke-width="1" fill="none" />
<polyline points="120.0,160.0,72.0,208.0" stroke="black" stroke-width="1" fill="none" />
<polyline points="72.0,206.0,160.0,206.0" stroke="black" stroke-width="1" fill="none" />
<polyline points="152.0,182.0,104.0,182.0" stroke="black" stroke-width="1" fill="none" />
<polyline points="96.0,174.0,88.0,174.0" stroke="black" stroke-width="1" fill="none" />
<polyline points="88.0,182.0,80.0,182.0" stroke="black" stroke-width="1" fill="none" />
<polyline points="80.0,178.0,160.0,178.0" stroke="black" stroke-width="1" fill="none" />
<polyline points="104.0,160.0,72.0,192.0" stroke="black" stroke-width="1" fill="none" />
<polyline points="72.0,194.0,168.0,194.0" stroke="black" stroke-width="1" fill="none" />
<polyline points="144.0,162.0,96.0,162.0" stroke="black" stroke-width="1" fill="none" />
<polyline points="80.0,170.0,152.0,170.0" stroke="black" stroke-width="1" fill="none" />
<polyline points="152.0,230.0,88.0,230.0" stroke="black" stroke-width="1" fill="none" />
<polyline points="88.0,226.0,160.0,226.0" stroke="black" stroke-width="1" fill="none" />
<polyline points="168.0,298.0,200.0,298.0" stroke="black" stroke-width="1" fill="none" />
<polyline points="200.0,296.0,208.0,288.0" stroke="black" stroke-width="1" fill="none" />
<polyline points="208.0,282.0,224.0,282.0" stroke="black" stroke-width="1" fill="none" />
<polyline points="224.0,274.0,304.0,274.0" stroke="black" stroke-width="1" fill="none" />
<polyline points="304.0,272.0,296.0,280.0" stroke="black" stroke-width="1" fill="none" />
<polyline points="296.0,282.0,312.0,282.0" stroke="black" stroke-width="1" fill="none" />
<polyline points="312.0,280.0,296.0,296.0" stroke="black" stroke-width="1" fill="none" />
<polyline points="296.0,294.0,312.0,294.0" stroke="black" stroke-width="1" fill="none" />
<polyline points="312.0,288.0,296.0,304.0" stroke="black" stroke-width="1" fill="none" />
<polyline points="296.0,306.0,336.0,306.0" stroke="black" stroke-width="1" fill="none" />
<polyline points="336.0,304.0,312.0,328.0" stroke="black" stroke-width="1" fill="none" />
<polyline points="312.0,322.0,352.0,322.0" stroke="black" stroke-width="1" fill="none" />
<polyline points="352.0,320.0,336.0,336.0" stroke="black" stroke-width="1" fill="none" />
<polyline points="336.0,344.0,352.0,328.0" stroke="black" stroke-width="1" fill="none" />
<polyline points="360.0,328.0,344.0,344.0" stroke="black" stroke-width="1" fill="none" />
<polyline points="344.0,342.0,360.0,342.0" stroke="black" stroke-width="1" fill="none" />
<polyline points="360.0,344.0,368.0,336.0" stroke="black" stroke-width="1" fill="none" />
<polyline points="360.0,336.0,352.0,344.0" stroke="black" stroke-width="1" fill="none" />
<polyline points="360.0,346.0,376.0,346.0" stroke="black" stroke-width="1" fill="none" />
<polyline points="376.0,344.0,368.0,352.0" stroke="black" stroke-width="1" fill="none" />
<polyline points="368.0,354.0,384.0,354.0" stroke="black" stroke-width="1" fill="none" />
<polyline points="384.0,352.0,376.0,360.0" stroke="black" stroke-width="1" fill="none" />
<polyline points="376.0,366.0,384.0,366.0" stroke="black" stroke-width="1" fill="none" />
<polyline points="384.0,368.0,392.0,360.0" stroke="black" stroke-width="1" fill="none" />
<polyline points="384.0,360.0,376.0,368.0" stroke="black" stroke-width="1" fill="none" />
<polyline points="384.0,370.0,400.0,370.0" stroke="black" stroke-width="1" fill="none" />
<polyline points="400.0,368.0,392.0,376.0" stroke="black" stroke-width="1" fill="none" />
<polyline points="392.0,368.0,384.0,376.0" stroke="black" stroke-width="1" fill="none" />
<polyline points="400.0,378.0,408.0,378.0" stroke="black" stroke-width="1" fill="none" />
<polyline points="408.0,376.0,400.0,384.0" stroke="black" stroke-width="1" fill="none" />
<polyline points="400.0,386.0,408.0,386.0" stroke="black" stroke-width="1" fill="none" />
<polyline points="408.0,370.0,416.0,370.0" stroke="black" stroke-width="1" fill="none" />
<polyline points="416.0,362.0,408.0,362.0" stroke="black" stroke-width="1" fill="none" />
<polyline points="416.0,354.0,424.0,354.0" stroke="black" stroke-width="1" fill="none" />
<polyline points="432.0,354.0,440.0,354.0" stroke="black" stroke-width="1" fill="none" />
<polyline points="440.0,362.0,432.0,362.0" stroke="black" stroke-width="1" fill="none" />
<polyline points="432.0,370.0,440.0,370.0" stroke="black" stroke-width="1" fill="none" />
<polyline points="440.0,378.0,432.0,378.0" stroke="black" stroke-width="1" fill="none" />
<polyline points="432.0,386.0,440.0,386.0" stroke="black" stroke-width="1" fill="none" />
<polyline points="440.0,394.0,432.0,394.0" stroke="black" stroke-width="1" fill="none" />
<polyline points="424.0,402.0,440.0,402.0" stroke="black" stroke-width="1" fill="none" />
<polyline points="432.0,408.0,424.0,416.0" stroke="black" stroke-width="1" fill="none" />
<polyline points="424.0,410.0,432.0,410.0" stroke="black" stroke-width="1" fill="none" />
<polyline points="432.0,418.0,416.0,418.0" stroke="black" stroke-width="1" fill="none" />
<polyline points="416.0,426.0,424.0,426.0" stroke="black" stroke-width="1" fill="none" />
<polyline points="416.0,432.0,400.0,448.0" stroke="black" stroke-width="1" fill="none" />
<polyline points="400.0,450.0,392.0,450.0" stroke="black" stroke-width="1" fill="none" />
<polyline points="392.0,442.0,408.0,442.0" stroke="black" stroke-width="1" fill="none" />
<polyline points="408.0,434.0,416.0,434.0" stroke="black" stroke-width="1" fill="none" />
<polyline points="408.0,418.0,400.0,418.0" stroke="black" stroke-width="1" fill="none" />
<polyline points="400.0,434.0,392.0,434.0" stroke="black" stroke-width="1" fill="none" />
<polyline points="392.0,362.0,368.0,362.0" stroke="black" stroke-width="1" fill="none" />
<polyline points="368.0,360.0,376.0,352.0" stroke="black" stroke-width="1" fill="none" />
<polyline points="376.0,358.0,368.0,358.0" stroke="black" stroke-width="1" fill="none" />
<polyline points="368.0,338.0,328.0,338.0" stroke="black" stroke-width="1" fill="none" />
<polyline points="328.0,336.0,344.0,320.0" stroke="black" stroke-width="1" fill="none" />
<polyline points="344.0,312.0,320.0,336.0" stroke="black" stroke-width="1" fill="none" />
<polyline points="320.0,330.0,360.0,330.0" stroke="black" stroke-width="1" fill="none" />
<polyline points="336.0,312.0,320.0,328.0" stroke="black" stroke-width="1" fill="none" />
<polyline points="320.0,326.0,344.0,326.0" stroke="black" stroke-width="1" fill="none" />
<polyline points="352.0,334.0,328.0,334.0" stroke="black" stroke-width="1" fill="none" />
<polyline points="312.0,320.0,328.0,304.0" stroke="black" stroke-width="1" fill="none" />
<polyline points="328.0,296.0,304.0,320.0" stroke="black" stroke-width="1" fill="none" />
<polyline points="304.0,314.0,344.0,314.0" stroke="black" stroke-width="1" fill="none" />
<polyline points="320.0,296.0,304.0,312.0" stroke="black" stroke-width="1" fill="none" />
<polyline points="304.0,310.0,328.0,310.0" stroke="black" stroke-width="1" fill="none" />
<polyline points="336.0,318.0,312.0,318.0" stroke="black" stroke-width="1" fill="none" />
<polyline points="304.0,304.0,320.0,288.0" stroke="black" stroke-width="1" fill="none" />
<polyline points="304.0,280.0,296.0,288.0" stroke="black" stroke-width="1" fill="none" />
<polyline points="296.0,286.0,304.0,286.0" stroke="black" stroke-width="1" fill="none" />
<polyline points="296.0,290.0,320.0,290.0" stroke="black" stroke-width="1" fill="none" />
<polyline points="320.0,302.0,304.0,302.0" stroke="black" stroke-width="1" fill="none" />
<polyline points="296.0,298.0,328.0,298.0" stroke="black" stroke-width="1" fill="none" />
<polyline points="296.0,264.0,280.0,280.0" stroke="black" stroke-width="1" fill="none" />
<polyline points="280.0,270.0,296.0,270.0" stroke="black" stroke-width="1" fill="none" />
<polyline points="296.0,256.0,256.0,296.0" stroke="black" stroke-width="1" fill="none" />
<polyline points="256.0,298.0,264.0,298.0" stroke="black" stroke-width="1" fill="none" />
<polyline points="264.0,304.0,256.0,312.0" stroke="black" stroke-width="1" fill="none" />
<polyline points="256.0,314.0,264.0,314.0" stroke="black" stroke-width="1" fill="none" />
<polyline points="264.0,306.0,248.0,306.0" stroke="black" stroke-width="1" fill="none" />
<polyline points="240.0,304.0,232.0,312.0" stroke="black" stroke-width="1" fill="none" />
<polyline points="232.0,306.0,240.0,306.0" stroke="black" stroke-width="1" fill="none" />
<polyline points="240.0,312.0,232.0,320.0" stroke="black" stroke-width="1" fill="none" />
<polyline points="232.0,322.0,224.0,322.0" stroke="black" stroke-width="1" fill="none" />
<polyline points="224.0,314.0,240.0,314.0" stroke="black" stroke-width="1" fill="none" />
<polyline points="240.0,322.0,264.0,322.0" stroke="black" stroke-width="1" fill="none" />
<polyline points="248.0,296.0,288.0,256.0" stroke="black" stroke-width="1" fill="none" />
<polyline points="288.0,248.0,280.0,256.0" stroke="black" stroke-width="1" fill="none" />
<polyline points="280.0,254.0,288.0,254.0" stroke="black" stroke-width="1" fill="none" />
<polyline points="288.0,262.0,280.0,262.0" stroke="black" stroke-width="1" fill="none" />
<polyline points="280.0,258.0,296.0,258.0" stroke="black" stroke-width="1" fill="none" />
<polyline points="296.0,242.0,280.0,242.0" stroke="black" stroke-width="1" fill="none" />
<polyline points="272.0,250.0,288.0,250.0" stroke="black" stroke-width="1" fill="none" />
<polyline points="296.0,266.0,272.0,266.0" stroke="black" stroke-width="1" fill="none" />
<polyline points="264.0,272.0,240.0,296.0" stroke="black" stroke-width="1" fill="none" />
<polyline points="240.0,288.0,256.0,272.0" stroke="black" stroke-width="1" fill="none" />
<polyline points="248.0,272.0,240.0,280.0" stroke="black" stroke-width="1" fill="none" />
<polyline points="240.0,278.0,256.0,278.0" stroke="black" stroke-width="1" fill="none" />
<polyline points="264.0,278.0,280.0,278.0" stroke="black" stroke-width="1" fill="none" />
<polyline points="264.0,286.0,240.0,286.0" stroke="black" stroke-width="1" fill="none" />
<polyline points="240.0,282.0,280.0,282.0" stroke="black" stroke-width="1" fill="none" />
<polyline points="240.0,272.0,232.0,280.0" stroke="black" stroke-width="1" fill="none" />
<polyline points="232.0,290.0,264.0,290.0" stroke="black" stroke-width="1" fill="none" />
<polyline points="248.0,298.0,232.0,298.0" stroke="black" stroke-width="1" fill="none" />
<polyline points="232.0,266.0,256.0,266.0" stroke="black" stroke-width="1" fill="none" />
<polyline points="216.0,290.0,200.0,290.0" stroke="black" stroke-width="1" fill="none" />
<polyline points="224.0,330.0,232.0,330.0" stroke="black" stroke-width="1" fill="none" />
<polyline points="232.0,338.0,224.0,338.0" stroke="black" stroke-width="1" fill="none" />
<polyline points="224.0,346.0,232.0,346.0" stroke="black" stroke-width="1" fill="none" />
<polyline points="232.0,354.0,224.0,354.0" stroke="black" stroke-width="1" fill="none" />
<polyline points="232.0,362.0,240.0,362.0" stroke="black" stroke-width="1" fill="none" />
<polyline points="240.0,368.0,232.0,376.0" stroke="black" stroke-width="1" fill="none" />
<polyline points="232.0,378.0,240.0,378.0" stroke="black" stroke-width="1" fill="none" />
<polyline points="240.0,386.0,232.0,386.0" stroke="black" stroke-width="1" fill="none" />
<polyline points="232.0,370.0,240.0,370.0" stroke="black" stroke-width="1" fill="none" />
<polyline points="232.0,402.0,224.0,402.0" stroke="black" stroke-width="1" fill="none" />
<polyline points="232.0,410.0,208.0,410.0" stroke="black" stroke-width="1" fill="none" />
<polyline points="208.0,418.0,200.0,418.0" stroke="black" stroke-width="1" fill="none" />
<polyline points="200.0,426.0,192.0,426.0" stroke="black" stroke-width="1" fill="none" />
<polyline points="192.0,434.0,200.0,434.0" stroke="black" stroke-width="1" fill="none" />
<polyline points="200.0,442.0,192.0,442.0" stroke="black" stroke-width="1" fill="none" />
<polyline points="192.0,450.0,200.0,450.0" stroke="black" stroke-width="1" fill="none" />
<polyline points="208.0,456.0,200.0,464.0" stroke="black" stroke-width="1" fill="none" />
<polyline points="208.0,464.0,216.0,456.0" stroke="black" stroke-width="1" fill="none" />
<polyline points="224.0,456.0,216.0,464.0" stroke="black" stroke-width="1" fill="none" />
<polyline points="224.0,464.0,232.0,456.0" stroke="black" stroke-width="1" fill="none" />
<polyline points="256.0,464.0,264.0,456.0" stroke="black" stroke-width="1" fill="none" />
<polyline points="296.0,426.0,304.0,426.0" stroke="black" stroke-width="1" fill="none" />
<polyline points="304.0,418.0,296.0,418.0" stroke="black" stroke-width="1" fill="none" />
<polyline points="320.0,410.0,336.0,410.0" stroke="black" stroke-width="1" fill="none" />
<polyline points="272.0,410.0,256.0,410.0" stroke="black" stroke-width="1" fill="none" />
<polyline points="256.0,402.0,264.0,402.0" stroke="black" stroke-width="1" fill="none" />
<polyline points="192.0,458.0,400.0,458.0" stroke="black" stroke-width="1" fill="none" />
<polyline points="416.0,346.0,424.0,346.0" stroke="black" stroke-width="1" fill="none" />
<polyline points="432.0,346.0,440.0,346.0" stroke="black" stroke-width="1" fill="none" />
<polyline points="440.0,338.0,432.0,338.0" stroke="black" stroke-width="1" fill="none" />
<polyline points="424.0,336.0,432.0,328.0" stroke="black" stroke-width="1" fill="none" />
<polyline points="432.0,320.0,416.0,336.0" stroke="black" stroke-width="1" fill="none" />
<polyline points="416.0,338.0,424.0,338.0" stroke="black" stroke-width="1" fill="none" />
<polyline points="416.0,330.0,432.0,330.0" stroke="black" stroke-width="1" fill="none" />
<polyline points="424.0,320.0,416.0,328.0" stroke="black" stroke-width="1" fill="none" />
<polyline points="416.0,326.0,424.0,326.0" stroke="black" stroke-width="1" fill="none" />
<polyline points="416.0,320.0,424.0,312.0" stroke="black" stroke-width="1" fill="none" />
<polyline points="416.0,312.0,408.0,320.0" stroke="black" stroke-width="1" fill="none" />
<polyline points="408.0,322.0,432.0,322.0" stroke="black" stroke-width="1" fill="none" />
<polyline points="424.0,318.0,416.0,318.0" stroke="black" stroke-width="1" fill="none" />
<polyline points="408.0,314.0,424.0,314.0" stroke="black" stroke-width="1" fill="none" />
<polyline points="416.0,304.0,408.0,312.0" stroke="black" stroke-width="1" fill="none" />
<polyline points="408.0,310.0,416.0,310.0" stroke="black" stroke-width="1" fill="none" />
<polyline points="416.0,306.0,400.0,306.0" stroke="black" stroke-width="1" fill="none" />
<polyline points="176.0,306.0,136.0,306.0" stroke="black" stroke-width="1" fill="none" />
<polyline points="136.0,298.0,112.0,298.0" stroke="black" stroke-width="1" fill="none" />
<polyline points="104.0,296.0,112.0,288.0" stroke="black" stroke-width="1" fill="none" />
<polyline points="112.0,290.0,104.0,290.0" stroke="black" stroke-width="1" fill="none" />
<polyline points="104.0,282.0,96.0,282.0" stroke="black" stroke-width="1" fill="none" />
<polyline points="96.0,274.0,88.0,274.0" stroke="black" stroke-width="1" fill="none" />
<polyline points="88.0,266.0,80.0,266.0" stroke="black" stroke-width="1" fill="none" />
<polyline points="80.0,258.0,88.0,258.0" stroke="black" stroke-width="1" fill="none" />
<polyline points="80.0,250.0,72.0,250.0" stroke="black" stroke-width="1" fill="none" />
<polyline points="72.0,242.0,80.0,242.0" stroke="black" stroke-width="1" fill="none" />
<polyline points="80.0,234.0,72.0,234.0" stroke="black" stroke-width="1" fill="none" />
<polyline points="72.0,226.0,80.0,226.0" stroke="black" stroke-width="1" fill="none" />
<polyline points="72.0,218.0,160.0,218.0" stroke="black" stroke-width="1" fill="none" />
<polyline points="160.0,190.0,80.0,190.0" stroke="black" stroke-width="1" fill="none" />
<polyline points="72.0,202.0,168.0,202.0" stroke="black" stroke-width="1" fill="none" />
<polyline points="168.0,210.0,72.0,210.0" stroke="black" stroke-width="1" fill="none" />
</svg>